<svg xmlns="http://www.w3.org/2000/svg" fill="none" viewBox="0 0 48 48" id="Location-Pin--Streamline-Plump.svg" height="48" width="48"><desc>Location Pin Streamline Icon: https://streamlinehq.com</desc><g id="location-pin--navigation-map-maps-pin-gps-location"><path id="Subtract" fill="#ffffff" fill-rule="evenodd" d="M3.9325 20.5475C3.9325 9.4645 12.917 0.48 24 0.48S44.0675 9.4645 44.0675 20.5475C44.0675 27.7383 40.357 33.7871 36.3227 38.251C32.2757 42.729 27.7539 45.7801 25.7871 47.0048C24.6839 47.6917 23.3161 47.6917 22.2129 47.0048C20.2461 45.7801 15.7242 42.729 11.6773 38.251C7.643 33.7871 3.9325 27.7383 3.9325 20.5475ZM24 28.7804C28.5469 28.7804 32.2328 25.0944 32.2328 20.5475S28.5469 12.3147 24 12.3147S15.7672 16.0007 15.7672 20.5475S19.4531 28.7804 24 28.7804Z" clip-rule="evenodd" stroke-width="1"></path></g></svg>